<?xml version="1.0" ?><svg fill="none" height="48" viewBox="0 0 48 48" width="48" xmlns="http://www.w3.org/2000/svg"><rect fill="white" fill-opacity="0.01" height="48" width="48"/><path d="M5 42H10" stroke="black" stroke-linecap="round" stroke-linejoin="round" stroke-width="4"/><path d="M5 36H10" stroke="black" stroke-linecap="round" stroke-linejoin="round" stroke-width="4"/><path d="M5 30H10" stroke="black" stroke-linecap="round" stroke-linejoin="round" stroke-width="4"/><path d="M5 24H10" stroke="black" stroke-linecap="round" stroke-linejoin="round" stroke-width="4"/><path d="M16 42H21" stroke="black" stroke-linecap="round" stroke-linejoin="round" stroke-width="4"/><path d="M16 36H21" stroke="black" stroke-linecap="round" stroke-linejoin="round" stroke-width="4"/><path d="M16 30H21" stroke="black" stroke-linecap="round" stroke-linejoin="round" stroke-width="4"/><path d="M16 24H21" stroke="black" stroke-linecap="round" stroke-linejoin="round" stroke-width="4"/><path d="M16 18H21" stroke="black" stroke-linecap="round" stroke-linejoin="round" stroke-width="4"/><path d="M16 12H21" stroke="black" stroke-linecap="round" stroke-linejoin="round" stroke-width="4"/><path d="M16 6H21" stroke="black" stroke-linecap="round" stroke-linejoin="round" stroke-width="4"/><path d="M27 42H32" stroke="black" stroke-linecap="round" stroke-linejoin="round" stroke-width="4"/><path d="M38 42H43" stroke="black" stroke-linecap="round" stroke-linejoin="round" stroke-width="4"/><path d="M27 36H32" stroke="black" stroke-linecap="round" stroke-linejoin="round" stroke-width="4"/><path d="M38 36H43" stroke="black" stroke-linecap="round" stroke-linejoin="round" stroke-width="4"/><path d="M27 30H32" stroke="black" stroke-linecap="round" stroke-linejoin="round" stroke-width="4"/><path d="M38 30H43" stroke="black" stroke-linecap="round" stroke-linejoin="round" stroke-width="4"/><path d="M38 24H43" stroke="black" stroke-linecap="round" stroke-linejoin="round" stroke-width="4"/><path d="M38 18H43" stroke="black" stroke-linecap="round" stroke-linejoin="round" stroke-width="4"/></svg>